<?xml version="1.0" standalone="no"?>
<!DOCTYPE svg PUBLIC "-//W3C//DTD SVG 1.1//EN" "http://www.w3.org/Graphics/SVG/1.1/DTD/svg11.dtd" >
<svg xmlns="http://www.w3.org/2000/svg">
<metadata>Generated by IcoMoon</metadata>
<defs>
<font id="kp-icons" horiz-adv-x="512">
<font-face units-per-em="512" ascent="480" descent="-32" />
<missing-glyph horiz-adv-x="512" />
<glyph unicode="&#x20;" d="" horiz-adv-x="256" />
<glyph unicode="&#xe600;" d="M471.050 331.543c-32.673 0-122.704-31.841-175.068-51.392-5.289 16.65-26.076 16.663-38.039 16.663l-5.133 0.010c-12.035 0-29.261-0.005-34.975-15.332-53.939 19.632-142.242 50.055-171.484 50.055-8.919 0-19.75-4.247-28.122-11.361-9.459-8.021-15.155-18.091-15.155-28.373v-138.542c0-21.543 19.576-39.728 42.145-39.728 29.939 0 123.052 31.949 177.052 51.486 7.006-6.807 19.118-11.207 32.999-11.207 16.13 0 29.609 4.949 36.702 12.577 49.71-19.399 140.582-52.866 179.671-52.866 17.206 0 36.716 17.357 36.716 39.734v138.542c0.010 22.661-15.744 39.734-37.31 39.734zM45.227 123.714c-16.75 0-31.962 13.808-31.962 29.553v138.542c0 16.313 19.932 29.545 32.599 29.545 27.748 0 116.644-30.674 169.866-50.055-0.31-6.756-0.31-17.938-0.32-30.256l-74.025 23.8c-2.143 0.686-4.406-0.491-5.097-2.634-0.686-2.142 0.507-4.439 2.649-5.127l76.59-24.599c0.010-6.992 0.054-14.072 0.11-20.718l-76.688-24.63c-2.14-0.691-3.318-2.98-2.626-5.123 0.553-1.741 2.163-2.837 3.886-2.837 0.41 0 0.825 0.064 1.242 0.197l74.26 23.856c0.123-13.107 0.266-22.981 0.266-24.013 0-1.861 0.066-3.648 0.614-5.386-53.737-19.369-143.585-50.115-171.367-50.115zM286.277 179.228c0-7.347-12.303-15.222-31.383-15.222-16.727 0-28.971 8.028-28.971 15.306-0.010 0.707-0.878 70.827 0.125 91.858 0.625 13.233 7.27 15.468 26.76 15.468h4.713c22.131 0 28.754-3.702 28.754-15.225v-92.185zM498.189 153.267c0-15.906-14.344-29.553-26.501-29.553-36.716 0-126.021 32.507-175.431 51.73 0.286 1.236 0.215 2.486 0.215 3.784v23.298l66.601-21.233c0.42-0.138 1.093-0.2 1.513-0.2 1.723 0 3.451 1.111 4.002 2.826 0.686 2.142-0.937 4.444-3.085 5.13l-69.031 22.026v22.067l69.104 22.041c2.132 0.686 3.568 2.983 2.882 5.123s-3.356 3.323-5.509 2.634l-66.478-21.241v28.006c52.966 19.221 142.799 51.643 174.080 51.643 15.739 0 27.638-12.703 27.638-29.545v-138.54z" />
<glyph unicode="&#xe601;" d="M279.498-4.962c-48.169-0.002-93.209 12.82-133.868 38.111-62.323 38.769-103.522 93.194-122.448 161.769-6.078 22.016-8.612 44.759-7.532 67.602 2.105 44.611 18.55 83.82 48.876 116.539 1.118 1.209 2.27 2.132 3.195 2.877 0.29 0.233 0.581 0.466 0.862 0.707 2.957 2.532 7.198 2.87 10.514 0.837l0.786-0.474c3.19-1.93 4.849-5.635 4.168-9.3l-2.987-16.094c-4.836-25.897-6.070-51.103-3.668-74.924 5.363-53.171 28.795-99.231 69.639-136.899 28.314-26.117 59.978-46.541 94.114-60.702 18.363-7.616 39.076-12.403 63.324-14.633 7.749-0.712 15.501-1.075 23.040-1.075 0.002 0 0.005 0 0.005 0 28.303 0 55.639 5.123 81.257 15.229 22.108 8.727 41.776 21.42 58.46 37.726 0.812 0.796 1.538 1.498 2.304 2.151 1.62 1.382 3.911 2.217 6.041 2.217 2.112 0 3.853-0.694 5.417-1.442 2.32-1.116 4.050-3.17 4.746-5.647 0.699-2.478 0.3-5.135-1.098-7.298-2.007-3.103-3.942-6.257-5.88-9.413-4.347-7.084-8.845-14.408-14.157-21.233-35.947-46.154-82.668-74.050-138.862-82.911-15.673-2.466-31.232-3.719-46.249-3.719zM61.020 345.953c-16.781-24.868-26.002-53.112-27.471-84.275-0.99-20.948 1.334-41.802 6.907-61.988 17.689-64.098 56.261-115.010 114.639-151.324 37.775-23.495 79.629-35.408 124.403-35.405 14.085 0 28.708 1.18 43.461 3.505 45.834 7.227 84.834 28.303 116.152 62.72-7.601-4.24-15.526-7.993-23.76-11.243-27.719-10.934-57.272-16.481-87.836-16.481-0.002 0-0.002 0-0.005 0-8.084 0-16.389 0.387-24.683 1.149-26.074 2.401-48.494 7.608-68.549 15.926-36.089 14.974-69.53 36.534-99.394 64.082-44.162 40.724-69.504 90.614-75.32 148.273-2.107 20.887-1.613 42.711 1.456 65.063zM342.421 141.909c-46.907 0-89.81 17.337-127.511 51.53-25.846 23.45-43.052 48.514-52.598 76.624-13.635 40.138-13.519 76.695 0.351 111.762 5.095 12.88 12.754 25.365 24.1 39.268 0.661 1.029 2.114 3.131 4.966 4.38 2.993 1.305 6.459 0.889 9.049-1.103 2.59-1.989 3.894-5.23 3.399-8.458-2.519-16.507-4.767-34.196-4.147-51.722 1.649-46.541 20.322-85.174 55.506-114.821 26.837-22.613 53.862-37.232 82.617-44.7 14.203-3.687 28.152-5.56 41.457-5.56 30.597 0 59.328 9.93 85.386 29.512 3.262 2.445 6.024 4.8 8.45 7.207 1.615 1.605 3.175 3.51 4.823 5.524 0.801 0.981 1.605 1.961 2.427 2.923 3.144 3.694 8.658 4.211 12.439 1.17l1.671-1.349c3.067-2.509 4.122-6.738 2.594-10.396-4.644-11.106-10.949-21.817-18.736-31.841-20.921-26.928-49.746-44.982-85.673-53.666-17.257-4.168-34.274-6.282-50.57-6.282zM182.344 382.072c-1.111-2.284-2.114-4.559-3.016-6.841-12.242-30.948-12.257-63.465-0.048-99.407 8.542-25.154 24.138-47.762 47.672-69.115 34.299-31.106 73.149-46.882 115.469-46.882 14.882 0 30.479 1.945 46.367 5.783 25.416 6.139 46.764 17.488 63.683 33.815-22.822-12.114-47.23-18.238-72.858-18.238-14.825 0-30.288 2.066-45.962 6.134-31.401 8.156-60.731 23.966-89.659 48.34-39.216 33.049-60.032 76.076-61.868 127.89-0.22 6.218-0.115 12.4 0.22 18.519zM396.974 271.291c-4.721 0-9.579 0.238-14.861 0.727-22.106 2.045-40.555 8.258-56.399 18.987-31.724 21.481-50.786 50.885-56.658 87.396-3.906 24.313 2.76 47.386 20.382 70.541 2.422 3.185 6.663 4.375 10.394 2.918 3.728-1.457 6.034-5.207 5.658-9.19l-0.346-3.766c-0.192-2.16-0.361-4.029-0.574-5.898-3.218-28.278 3.766-53.020 20.749-73.538 20.089-24.266 45.066-39.416 74.235-45.031 5.458-1.052 11.031-1.584 16.563-1.584 14.346 0 28.805 3.423 44.201 10.46 0.809 0.369 1.613 0.722 2.652 1.18l2.112 0.934c3.635 1.613 7.906 0.635 10.473-2.404 2.57-3.038 2.829-7.406 0.637-10.724-10.537-15.954-23.399-26.937-39.314-33.577-11.991-5-25.044-7.432-39.906-7.432zM287.012 403.072c-1.36-7.225-1.442-14.48-0.261-21.824 5.056-31.434 21.545-56.804 49.014-75.405 13.281-8.993 28.979-14.221 48-15.982 4.728-0.438 9.047-0.65 13.209-0.65 12.444 0 23.24 1.981 33.006 6.054 0.661 0.274 1.313 0.558 1.959 0.853-5.325-0.786-10.603-1.18-15.815-1.18-0.002 0 0 0-0.002 0-6.666 0-13.381 0.64-19.95 1.907-33.36 6.42-61.842 23.646-84.651 51.2-13.468 16.266-21.657 34.69-24.507 55.027z" />
<glyph unicode="&#xe602;" d="M291.254 65.003h-52.846c-4.966 0-8.663 2.355-10.985 6.997l-0.34 0.793-28.395 78.090h-97.439l-26.832-76.544c-1.278-5.942-5.614-9.334-12.009-9.334h-48.128c-5.087 0-7.816 2.202-9.211 4.055-2.053 2.724-2.503 6.178-1.334 10.268l0.141 0.438c28.918 81.938 70.594 198.4 98.57 274.025 1.296 4.324 2.514 8.604 3.392 23.836 0.141 5.678 4.638 10.087 10.361 10.087h65.114c6.393 0 8.901-3.298 10.514-6.523l0.348-0.811c8.218-22.771 16.622-46.085 25.131-69.709 27.748-77.007 56.438-156.634 83.85-231.293l0.074-0.217c1.608-4.823 0.305-8.113-1.072-10.025-1.113-1.541-3.748-4.132-8.904-4.132zM240.469 80.067h44.391c-26.739 72.904-54.679 150.446-81.723 225.498-8.185 22.718-16.269 45.151-24.187 67.088h-58.334c-0.993-14.034-2.419-18.793-3.804-23.411l-0.151-0.453c-27.349-73.92-67.865-187.085-96.701-268.718l40.502-0.002 30.105 85.878h118.671l31.232-85.878zM201.334 197.12h-103.501l3.177 9.849c4.196 13.012 8.921 27.065 13.489 40.656 10.823 32.19 22.011 65.477 26.916 87.043l1.334 5.863h12.165l1.559-5.463c5.043-17.641 14.078-44.275 22.817-70.034 7.595-22.385 14.771-43.528 19.156-58.224l2.887-9.687zM118.556 212.185h62.456c-4.262 13.435-9.994 30.334-15.993 48.007-5.394 15.9-10.903 32.133-15.539 46.459-5.698-19.2-13.286-41.772-20.702-63.834-3.42-10.166-6.925-20.595-10.222-30.633zM408.673 60.286h-0.057c-42.087 0-74.547 13.248-96.484 39.375-23.199 27.635-28.070 62.087-28.070 86.123 0 76.754 47.591 128.325 118.421 128.325 71.957 0 104.732-54.046 104.732-104.266 0-31.719-5.271-35.676-7.257-37.168l-0.752-0.566-0.87-0.361c-6.118-2.55-19.353-3.408-52.444-3.408h-88.138c3.876-29.924 25.849-46.279 62.661-46.279 14.003 0 35.072 1.938 55.936 11.156l0.671 0.259c1.093 0.363 2.209 0.548 3.313 0.548 4.685 0 9.428-3.456 9.428-10.058v-37.747c0-5.747-2.222-9.541-6.994-11.927-18.094-9.277-40.254-13.481-74.028-14.009h-0.067zM402.481 299.042c-31.475 0-57.858-11.236-76.296-32.497-17.447-20.119-27.059-48.804-27.059-80.763 0-21.538 4.257-52.275 24.543-76.434 18.931-22.546 47.493-33.984 84.887-33.997 30.459 0.481 50.373 4.004 66.135 11.745v29.209c-20.606-7.603-40.543-9.308-54.279-9.308-47.9 0-77.174 25.671-78.308 68.674l-0.205 7.734h103.99c10.127 0 35.32 0 44.27 1.63 0.837 3.284 1.989 10.898 1.989 24.806 0 22.285-7.596 44.153-20.839 59.991-15.972 19.108-39.772 29.207-68.828 29.207zM425.127 204.672h-84.027l1.058 8.469c4.728 37.811 26.399 60.386 57.961 60.386 22.999 0 35.858-10.98 42.594-20.188 7.897-10.803 10.714-23.701 10.714-32.169v-6.113l-0.226-0.899c-2.197-8.804-13.020-9.485-28.073-9.485zM358.526 219.738h66.603c7.048 0 11.026 0.32 13.23 0.637v0.793c0 10.373-6.868 37.294-38.241 37.294-12.844 0-34.416-5.266-41.592-38.725z" />
<glyph unicode="&#xe603;" d="M499.443 465.411c-19.822 19.886-54.663 15.224-74.594-4.754l-101.435-101.2-188.142 70.323c-18.017 4.656-36.165 10.683-58.517-11.73-11.4-11.417-35.105-35.179 0-70.354l129.006-105.63-83.945-83.755-78.32 19.574c-11.617 3.003-19.43 0.653-25.395-5.918-3.011-3.758-24.822-19.927-9.616-35.151l91.075-70.851 70.851-91.075c10.998-11.024 21.233-4.144 35.213 9.134 8.852 8.868 6.942 13.44 4.273 26.378l-17.692 77.776 83.367 83.65 105.457-129.024c35.092-35.164 58.813-11.399 70.213 0 22.366 22.421 16.358 40.589 11.697 58.642l-69.714 188.454 101.012 101.374c19.932 19.97 25.039 54.272 5.207 74.137zM477.929 412.24l-118.538-118.956 71.67-197.171c3.527-11.292 1.337-25.288-3.231-29.854-12.969-12.985-22.216-6.802-27.12-1.365l-114.608 154.837-126.868-127.309 22.835-84.784c-9.008 9.024-61.635 79.498-62.894 80.773-0.84 0.839-70.059 52.444-77.529 59.947l81.305-21.95 129.27 126.938-153.733 113.769c-4.409 3.945-10.204 15.596 1.664 27.497 4.57 4.562 18.409 5.945 29.668 2.401l196.301-71.127 120.149 117.978c8.392 8.389 24.827 7.534 32.19 0.171 7.35-7.365 7.859-23.406-0.527-31.795z" />
<glyph unicode="&#xe604;" d="M200.478 14.963c-0.542 0.141-1.075 0.371-1.631 0.407-5.568 0.392-10.563 2.281-14.881 5.819-5.701 4.68-8.392 10.857-8.428 18.14-0.074 16.276-0.043 32.553 0.013 48.834 0.005 1.308-0.512 1.974-1.541 2.462-14.262 6.75-24.192 17.603-30.108 32.13-2.204 5.42-3.618 11.113-3.727 17.014-0.177 9.050-0.335 18.094-0.343 27.146-0.036 40.546-0.016 81.091-0.010 121.641 0 3.632 1.001 6.881 4.47 8.599 1.57 0.773 3.476 1.203 5.24 1.214 19.353 0.084 38.704 0.059 58.064 0.059 51.318-0.002 102.641-0.007 153.958 0 3.863 0 6.986-1.354 8.647-4.966 0.663-1.446 0.952-3.19 0.955-4.8 0.054-43.564 0.064-87.13 0.018-130.693-0.005-6.8-0.069-13.614-0.54-20.39-0.584-8.486-3.471-16.336-7.844-23.603-6.249-10.389-14.822-18.26-25.853-23.39-1.001-0.469-1.411-1.175-1.408-2.373 0.048-15.921 0.034-31.841 0.034-47.764 0-10.419-4.403-18.224-14-22.587-2.882-1.31-6.2-1.674-9.313-2.476-0.553-0.144-1.103-0.284-1.656-0.425-1.060 0-2.13 0-3.197 0-0.484 0.141-0.962 0.297-1.454 0.407-2.627 0.591-5.363 0.878-7.867 1.813-10.082 3.755-15.649 11.952-15.649 22.679-0.002 14.323-0.021 28.642 0.046 42.964 0.010 1.741-0.522 2.173-2.212 2.168-16.512-0.059-33.019-0.059-49.531 0-1.641 0.005-2.119-0.45-2.112-2.096 0.064-14.436 0.164-28.872-0.046-43.315-0.043-3.279-0.689-6.776-1.974-9.774-3.668-8.505-10.639-12.877-19.638-14.259-1.211-0.187-2.419-0.389-3.627-0.586-0.955 0.002-1.899 0.002-2.852 0.002zM255.547 283.792c-32.604 0-65.208 0-97.813 0-2.391 0-2.512-0.115-2.512-2.402 0-45.366 0.010-90.731-0.013-136.097-0.002-6.413 1.008-12.57 3.635-18.473 7.001-15.749 22.126-25.3 38.251-25.666 11.065-0.251 22.134-0.051 33.198-0.051 26.796 0 53.591 0.021 80.387-0.021 5.534-0.007 10.911 0.647 16.179 2.457 8.676 2.969 15.601 8.24 20.959 15.603 5.819 7.993 8.092 17.014 8.069 26.854-0.092 45.066-0.043 90.127-0.043 135.193 0 2.542-0.054 2.604-2.673 2.604-32.543-0.003-65.085-0.003-97.625-0.003zM323.366 58.204c0 7.813-0.005 15.623 0.015 23.437 0.002 1.029-0.015 1.853-2.082 1.833-7.803-0.074-15.608-0.089-23.414-0.084-1.751 0-2.658-0.3-2.654-1.695 0.051-15.693-0.010-28.964 0.084-44.654 0.021-2.627 1.897-9.224 5.455-10.384 4.201-1.37 8.55-0.829 13.010-0.343 6.067 0.658 9.579 5 9.579 9.209 0.005 7.562 0.005 15.122 0.005 22.682zM213.481 59.31c0 8.522-0.038 17.037 0.038 25.554 0.010 1.605-0.589 2.192-2.506 2.181-6.902-0.034-13.811 0.007-20.715 0.082-1.498 0.015-2.038-0.445-1.989-1.685 0.069-1.923 0.010-3.848 0.010-5.767 0-15.048-0.010-30.093 0.016-45.14 0.005-3.303 1.638-5.75 5.369-7.122 3.738-1.372 7.544-1.344 11.443-0.812 5.232 0.712 8.32 3.697 8.33 8.185 0.018 8.176 0.005 16.351 0.005 24.525zM336.128 432.935c1.577-0.555 3.282-0.889 4.705-1.71 3.996-2.309 5.386-8.097 2.693-11.847-4.224-5.873-8.661-11.602-13.118-17.303-0.967-1.242-0.839-1.817 0.317-2.734 11.536-9.132 19.955-20.69 25.974-34.007 3.254-7.183 5.735-14.663 7.196-22.448 0.776-4.144 1.639-8.274 2.271-12.439 0.758-5-2.57-10.207-9.132-10.35-4.836-0.107-9.677-0.020-14.518-0.020-62.558 0-125.115 0-187.671 0-3.72 0-6.981 1.054-8.793 4.557-0.72 1.39-1.316 3.12-1.175 4.623 0.376 4.073 1.019 8.141 1.866 12.147 0.816 3.878 1.974 7.688 3.049 11.507 2.225 7.911 5.573 15.345 9.754 22.403 4.923 8.315 10.99 15.698 18.32 22.021 0.399 0.345 0.714 0.786 1.121 1.239-4.821 6.252-9.529 12.439-14.331 18.55-3.251 4.137-3.717 7.946-1.214 11.758 2.737 4.17 9.134 5.174 12.854 1.797 1.853-1.685 3.328-3.802 4.885-5.793 3.932-5.041 7.859-10.091 11.681-15.216 0.75-1.009 1.377-0.935 2.279-0.528 4.101 1.849 8.131 3.881 12.327 5.474 4.086 1.551 8.281 2.908 12.539 3.873 5.747 1.308 11.561 2.489 17.413 3.129 8.768 0.965 17.587 1.692 26.427 0.775 6.661-0.688 13.384-1.078 19.952-2.278 5.942-1.086 11.776-2.911 17.549-4.746 4.324-1.375 8.478-3.279 12.949-5.046 2.296 2.959 4.743 6.087 7.163 9.234 2.314 3.008 4.662 5.998 6.892 9.075 1.774 2.447 4.265 3.589 7.058 4.306 0.233 0 0.474 0 0.719 0zM254.722 335.462c30.694 0 61.389 0 92.086 0 0.499 0 1.127-0.174 1.469 0.072 0.489 0.361 1.152 1.144 1.058 1.579-0.712 3.362-1.411 6.738-2.442 9.994-2.887 9.067-6.692 17.651-11.966 25.508-6.902 10.284-15.795 18.061-26.137 24.041-7.865 4.541-16.286 7.508-25.029 9.608-8.916 2.153-17.956 3.128-27.024 3.264-11.735 0.169-23.373-1.075-34.798-4.278-7.869-2.207-15.391-5.212-22.507-9.403-21.95-12.93-33.779-33.457-39.219-58.78-0.092-0.425 0.492-1.224 0.95-1.506 0.428-0.266 1.101-0.1 1.661-0.1 30.633 0 61.263 0 91.899 0zM118.74 228.736c0-15.060 0.038-30.121-0.007-45.182-0.036-11.748-6.823-21.647-17.758-25.654-14.4-5.276-30.279 2.26-34.918 16.914-0.86 2.716-1.442 5.652-1.449 8.486-0.105 30.361-0.126 60.726-0.036 91.090 0.038 12.664 8.169 23.086 20.395 26.232 13.931 3.587 27.975-4.303 32.205-17.674 0.965-3.049 1.467-6.37 1.5-9.572 0.153-14.884 0.067-29.763 0.069-44.642zM77.534 228.803c0-16.166-0.034-32.338 0.054-48.51 0.010-1.669 0.496-3.413 1.252-4.995 2.544-5.368 12.214-7.928 19.013-5.187 5.532 2.235 7.895 5.724 7.895 10.245-0.013 32.343 0.010 64.681-0.064 97.017 0 1.61-0.456 3.295-1.193 4.815-2.258 4.611-10.34 7.544-16.1 6.285-6.070-1.328-10.921-5.918-10.888-10.765 0.092-16.302 0.025-32.601 0.031-48.906zM449.692 228.736c0-15.060 0.038-30.121-0.007-45.182-0.036-11.748-6.82-21.647-17.759-25.654-14.4-5.276-30.277 2.26-34.918 16.914-0.863 2.716-1.442 5.652-1.449 8.486-0.105 30.361-0.128 60.726-0.036 91.090 0.038 12.664 8.166 23.086 20.396 26.232 13.932 3.587 27.976-4.303 32.202-17.674 0.965-3.049 1.467-6.37 1.5-9.572 0.154-14.884 0.069-29.763 0.072-44.642zM408.484 228.803c0-16.166-0.031-32.338 0.054-48.51 0.010-1.669 0.497-3.413 1.252-4.995 2.542-5.368 12.214-7.928 19.010-5.187 5.532 2.235 7.897 5.724 7.897 10.245-0.015 32.343 0.010 64.681-0.064 97.017 0 1.61-0.455 3.295-1.193 4.815-2.258 4.611-10.337 7.544-16.1 6.285-6.067-1.328-10.921-5.918-10.887-10.765 0.094-16.302 0.026-32.601 0.031-48.906z" />
<glyph unicode="&#xe605;" d="M300.682 449.838c0.855-0.763 1.907-2.291 3.308-5.625 29.179-69.555 59.008-140.196 87.854-208.51l18.158-43.005c14.159-33.543 28.327-67.082 42.496-100.623 9.776-23.147 19.556-46.293 29.332-69.445h-19.435c-20.841 0-45-0.005-69.266-0.054-24.44 58.142-49.3 117.038-73.38 174.080l-8.707 20.626c-0.141 0.333-0.286 0.661-0.443 0.981-10.563 24.558-67.745 157.519-68.162 158.487-10.553 24.709-20.871 48.947-30.843 73.088h89.088zM177.756 469.732c-1.656 0-1.101-0.097-2.567-1.364-0.002-2.022 1.052-3.53 3.356-4.012 2.698-0.563 5.284-2.757 10.737-12.56 11.356-27.732 23.094-55.298 34.862-82.857 0.478-1.111 69.333-161.203 69.842-162.393-0.423 1.001-0.845 2.002-1.267 3.003l1.267-3.003c28.163-66.719 56.338-133.433 84.388-200.197 1.226-2.928 2.701-3.682 5.645-3.682 0.015 0 0.031 0 0.046 0 26.112 0.059 52.219 0.069 78.334 0.069 15.137 0 30.279-0.002 45.417-0.002 1.106 0 2.207 0 3.668 0-0.448 1.398-0.702 2.481-1.129 3.49-27.333 64.738-54.69 129.467-82.022 194.209-35.377 83.804-70.805 167.59-105.994 251.471-3.589 8.555-8.418 15.094-17.534 17.82-47.252 0-78.666 0-125.918 0-0.466 0.005-0.832 0.007-1.129 0.007v0zM154.417 439.659c0.412-0.048 0.816-0.13 1.070-0.184 0.548-0.113 0.952-0.182 1.201-0.223 1.162-0.185 1.863-0.297 3.026-3.041 11.84-27.973 23.815-56.461 35.394-84.007l5.689-13.527-6.605-15.57c-8.937-21.064-17.874-42.127-26.788-63.199-15.508-36.646-30.994-73.3-46.484-109.954l-8.018-18.974c-11.43-0.028-22.861-0.046-34.288-0.046-11.904 0-23.805 0.021-35.709 0.074-7.572 0.292-12.283 2.353-13.632 3.702-0.29 0.286-0.642 0.642-0.922 0.932-0.008 0.839 0.12 2.719 1.029 6.024 3.671 8.671 6.044 14.096 7.966 18.491 1.697 3.876 3.036 6.935 4.578 10.649 13.801 33.231 27.95 66.988 41.633 99.63 5.686 13.56 11.369 27.12 17.047 40.686 17.767 42.46 35.52 84.931 53.274 127.399 0.218 0.525 0.405 0.894 0.54 1.139zM153.861 459.587c-2.24 0-4.782-0.338-7.030-1.48-5.678-2.145-9.044-6.492-11.31-11.914-17.751-42.468-35.505-84.935-53.271-127.394-19.581-46.784-39.25-93.527-58.701-140.367-3.254-7.839-5.696-12.928-12.959-30.123-5.292-17.81 0.415-23.462 4.639-27.692 6.743-6.74 17.953-9.193 27.274-9.5 12.037-0.054 24.072-0.077 36.109-0.077 14.236 0 28.475 0.031 42.714 0.064 0.023 0 0.046 0 0.067 0 0.453 0 0.916-0.015 1.38-0.015 1.585 0 3.159 0.187 4.216 1.843 0.469 1.206 0.903 2.419 1.406 3.61 19.102 45.207 38.201 90.414 57.326 135.613 12.142 28.695 24.32 57.375 36.487 86.062-0.205 0.778-0.315 1.59-0.619 2.322-14.5 34.483-28.974 68.976-43.559 103.424-3.415 8.064-9.242 13.499-18.207 14.93-0.43 0.072-2.916 0.694-5.962 0.694v0zM126.129 79.26c37.376-0.005 74.752-0.007 112.131-0.010-0.041-0.023-0.079-0.048-0.118-0.072-31.368-19.558-63.803-39.783-95.81-59.446-13.32-8.182-29.35-16.981-47.239-20.175-1.475-0.264-2.837-0.394-4.052-0.394-3.538 0-5.66 0.804-8.148 5.384-11.546 21.248-22.912 42.714-33.902 63.47-1.956 3.689-3.922 7.409-5.906 11.146 7.373-0.046 15.34-0.067 24.333-0.067 8.755 0 17.513 0.021 26.27 0.041 7.434 0.018 14.871 0.034 22.293 0.038 0.156 0 0.896 0.007 1.954 0.021 2.258 0.021 6.18 0.064 8.197 0.064zM3.454 111.749c0.527-1.175 0.986-2.394 1.598-3.527 20.436-37.998 39.764-75.264 60.365-113.175 5.767-10.616 14.41-15.777 25.626-15.777 2.398 0 4.912 0.236 7.544 0.704 19.76 3.527 37.346 12.478 54.162 22.81 44.196 27.149 88.146 54.707 132.185 82.109 7.166 4.459 14.315 8.952 21.468 13.427-0.11 0.274-0.223 0.55-0.333 0.819-2.547 0-5.097 0-7.647 0-57.428 0-114.859 0-172.286 0.010-2.91 0-9.677-0.087-10.153-0.087-16.187-0.010-32.374-0.077-48.563-0.077-12.099 0-24.197 0.038-36.295 0.164-8.953 0.839-10.988 1.572-19.655 6.825-2.338 1.413-4.995 5.066-8.015 5.776v0z" />
<glyph unicode="&#xe606;" d="M256.497 284.147c-46.4 0-84.137-37.775-84.137-84.206 0-46.421 37.737-84.122 84.137-84.122 46.433 0 84.196 37.704 84.196 84.121-0.013 46.43-37.762 84.206-84.196 84.206zM256.497 131.031c-38.034 0-68.964 30.912-68.964 68.91 0 38.029 30.93 68.992 68.964 68.992 38.072 0 68.976-30.969 68.976-68.992 0.002-37.993-30.904-68.91-68.976-68.91zM461.645 335.49h-124.163l-23.145 46.233c-1.285 2.567-3.911 4.237-6.776 4.237h-102.103c-2.857 0-5.499-1.669-6.807-4.237l-23.107-46.233h-40.023v17.907c0 4.204-3.407 7.623-7.611 7.623h-51.023c-4.204 0-7.611-3.42-7.611-7.623v-17.907h-17.922c-4.201 0-7.603-3.418-7.603-7.606v-255.801c0-4.214 3.402-7.598 7.603-7.598h410.291c4.201 0 7.601 3.382 7.601 7.598v255.8c0 4.18-3.399 7.606-7.601 7.606zM84.475 345.813h35.863v-10.327h-35.863v10.327zM454.050 79.675h-395.111v240.604h121.3c2.88 0 5.519 1.628 6.784 4.216l23.145 46.252h92.687l23.142-46.252c1.288-2.59 3.917-4.216 6.771-4.216h121.283v-240.604z" />
<glyph unicode="&#xe607;" d="M132.17 150.024l-88.054 71.186 88.054 71.202c6.672 6.525 6.672 17.096 0 23.606-6.681 6.528-17.516 6.528-24.207 0l-101.614-82.168c-3.563-3.466-5.066-8.087-4.836-12.642-0.23-4.536 1.275-9.162 4.836-12.639l101.617-82.153c6.692-6.531 17.526-6.531 24.207 0 6.669 6.512 6.669 17.080-0.002 23.608zM374.062 444.334c-8.115 4.606-18.488 1.874-23.175-6.077l-212.045-408.601c-4.688-7.952-2.75-20.111 6.213-22.712 10.949-3.161 18.488-1.872 23.178 6.080l212.042 408.617c4.675 7.952 1.889 18.109-6.213 22.695zM505.644 233.849l-101.609 82.168c-6.695 6.507-17.529 6.507-24.2 0-6.679-6.528-6.679-17.080 0-23.606l88.059-71.202-88.059-71.202c-6.679-6.51-6.679-17.078 0-23.588 6.671-6.531 17.505-6.531 24.2 0l101.609 82.153c3.566 3.474 5.077 8.1 4.844 12.639 0.233 4.549-1.28 9.173-4.844 12.636z" />
<glyph unicode="&#xe608;" d="M233.81 388.103c-4.436 0.95-11.126 2.082-17.82 2.082-31.642 0-44.549-15.76-44.549-54.395v-74.806c0-20.531-1.226-27.63-25.331-27.63h-7.219c-2.862 0-5.179-2.317-5.179-5.179v-7.217c0-2.86 2.32-5.179 5.179-5.179h7.219c24.105 0 25.331-7.099 25.331-27.63v-74.803c0-38.635 12.907-54.395 44.549-54.395 6.695 0 13.383 1.134 17.82 2.082 2.388 0.512 4.094 2.624 4.094 5.066v6.887c0 1.562-0.707 3.044-1.923 4.027s-2.811 1.37-4.339 1.039c-4.198-0.904-11.108-1.856-15.649-1.856-21.174 0-26.972 7.982-26.972 37.146v74.803c0 10.13 0 27.364-12.382 36.575 12.382 9.152 12.382 26.23 12.382 36.265v74.806c0 29.159 5.798 37.143 26.972 37.143 4.544 0 11.456-0.958 15.647-1.856 1.531-0.325 3.123 0.054 4.342 1.037 1.216 0.983 1.923 2.463 1.923 4.027v6.892c0 2.447-1.708 4.557-4.094 5.072zM371.17 233.354h-7.216c-24.103 0-25.334 7.101-25.334 27.63v74.806c0 38.636-12.908 54.395-44.549 54.395-6.69 0-13.384-1.134-17.817-2.082-2.389-0.512-4.094-2.624-4.094-5.066v-6.892c0-1.564 0.704-3.044 1.923-4.027 1.216-0.986 2.824-1.365 4.339-1.037 4.193 0.899 11.103 1.856 15.647 1.856 21.174 0 26.972-7.984 26.972-37.143v-74.806c0-10.132-0.002-27.367 12.382-36.575-12.385-9.152-12.382-26.227-12.382-36.265v-74.803c0-29.163-5.798-37.146-26.972-37.146-4.541 0-11.454 0.952-15.649 1.856-1.523 0.327-3.123-0.057-4.339-1.039s-1.92-2.466-1.92-4.027v-6.887c0-2.442 1.705-4.554 4.091-5.066 4.434-0.947 11.131-2.082 17.82-2.082 31.642 0 44.549 15.76 44.549 54.395v74.803c0 20.531 1.229 27.63 25.334 27.63h7.216c2.862 0 5.181 2.32 5.181 5.179v7.216c0.002 2.857-2.32 5.174-5.182 5.174z" />
<glyph unicode="&#xe609;" d="M502.904 64.601h-494.323c-3.364 0-6.103 2.731-6.103 6.103v42.721c0 0.714 0.131 1.433 0.384 2.112l20.595 56.064c0.694 1.889 2.276 3.323 4.216 3.82l103.695 26.294 149.809 86.482 49.8 76.478c1.705 2.619 5.12 3.525 7.906 2.094l60.247-30.991 81.81-23.486c2.132-0.615 3.753-2.325 4.252-4.488l23.649-101.839c0.11-0.461 0.164-0.916 0.164-1.382v-133.881c0.002-3.366-2.724-6.101-6.101-6.101zM14.681 76.808h482.125v127.079l-22.676 97.671-78.953 22.666c-0.374 0.108-0.748 0.253-1.101 0.44l-55.875 28.723-47.601-73.091c-0.522-0.804-1.224-1.477-2.063-1.956l-151.8-87.626c-0.487-0.279-1.011-0.486-1.549-0.64l-101.391-25.707-19.118-52.032v-35.528zM165.47 184.88c-1.948 0-3.874 0.93-5.059 2.675l-18 26.547c-1.889 2.788-1.167 6.587 1.631 8.476 2.791 1.889 6.597 1.162 8.476-1.625l18.002-26.547c1.894-2.788 1.165-6.579-1.633-8.478-1.040-0.699-2.243-1.047-3.417-1.047zM202.227 209.083c-1.956 0-3.879 0.942-5.069 2.685l-17.989 26.544c-1.892 2.791-1.162 6.584 1.625 8.478 2.788 1.889 6.584 1.157 8.476-1.633l17.997-26.547c1.894-2.788 1.165-6.584-1.625-8.476-1.044-0.712-2.245-1.052-3.415-1.052zM238.971 233.298c-1.953 0-3.87 0.94-5.059 2.675l-17.992 26.553c-1.894 2.791-1.165 6.579 1.625 8.476 2.791 1.894 6.589 1.157 8.478-1.633l18-26.545c1.887-2.791 1.16-6.587-1.631-8.476-1.049-0.707-2.24-1.049-3.423-1.049zM167.171 153.644c-2.109 0-4.17 1.096-5.292 3.062-1.682 2.921-0.668 6.661 2.253 8.33l166.633 95.621c2.921 1.68 6.659 0.666 8.333-2.261 1.68-2.928 0.666-6.651-2.258-8.325l-166.631-95.621c-0.96-0.546-2.002-0.807-3.038-0.807zM373.74 107.32c-0.228 0-0.458 0.015-0.686 0.043-3.356 0.377-5.757 3.402-5.381 6.74 11.781 104.074-57.226 160.464-78.649 175.257-2.77 1.915-3.464 5.716-1.554 8.491 1.92 2.773 5.709 3.466 8.491 1.552 22.838-15.783 96.376-75.865 83.83-186.673-0.343-3.111-2.99-5.412-6.052-5.412zM275.697 251.405c-1.959 0-3.889 0.942-5.069 2.675l-17.987 26.553c-1.892 2.79-1.16 6.577 1.631 8.473 2.796 1.897 6.584 1.157 8.478-1.633l18.002-26.545c1.887-2.79 1.157-6.587-1.634-8.473-1.055-0.709-2.253-1.049-3.423-1.049zM502.904 107.32h-488.223c-3.364 0-6.101 2.726-6.101 6.106 0 3.369 2.736 6.103 6.101 6.103h488.223c3.374 0 6.103-2.731 6.103-6.103 0-3.379-2.726-6.106-6.103-6.106zM330.233 351.918c-2.151-3.072-0.911-0.988 2.736 4.639l8.42 12.915c3.663 5.627 11.689 8.028 17.841 5.337l38.666-16.929c6.149-2.693 8.591-9.751 5.445-15.67l-0.727-1.351c-3.156-5.931-10.547-8.105-16.407-4.854 0 0-34.288 19.046-40.801 20.544-2.837 0.647-6.912 0.647-10.512-1.651-4.662-2.98-4.662-2.98-4.662-2.98zM392.021 328.392c-3.059 0-6.098 0.786-8.788 2.291-16.125 8.95-34.928 23.719-38.428 24.522-2 0.445-5.663-0.266-7.248-1.293l-4.764-4.204c-1.17-1.556-0.945-5.322-3.615-5.322-2.238 0-4.296 1.229-5.376 3.195-1.787 3.313-1.011 4.503 4.055 12.301l8.412 12.918c3.694 5.686 10.406 9.216 17.513 9.216 2.791 0 5.438-0.546 7.892-1.62l38.663-16.927c4.551-1.991 7.938-5.622 9.531-10.207 1.6-4.592 1.185-9.531-1.147-13.918l-0.74-1.385c-3.139-5.88-9.252-9.566-15.962-9.566zM344.387 362.898c0.804-0.082 1.598-0.22 2.378-0.392 6.817-1.564 34.183-16.594 42.394-21.156 2.841-1.564 6.569-0.43 8.059 2.384l0.738 1.375c0.707 1.331 0.848 2.808 0.379 4.155-0.461 1.346-1.49 2.419-2.896 3.041l-38.666 16.924c-3.315 1.451-8.31-0.072-10.274-3.070l-2.112-3.261zM492.237 200.166c-20.296-0.005-32.016 11.095-46.313 24.622-3.333 3.146-6.868 6.494-10.755 9.933-17.764 15.68-63.002 50.949-81.638 65.38-7.424 5.768-7.46 14.108-0.084 24.798 4.365 6.315 12.012 17.113 12.012 17.113l9.969-7.053c0-0.002-7.598-10.726-11.927-16.998-4.554-6.602-3.21-7.652-2.481-8.218 18.709-14.5 64.207-49.964 82.227-65.871 4.002-3.541 7.642-6.976 11.067-10.217 15.895-15.043 25.498-24.113 46.958-20.45l2.050-12.037c-3.966-0.686-7.649-1.003-11.085-1.003zM197.297 110.904c-0.21 0.474-21.686 47.043-53.048 52.974-33.84 6.416-96.305 4.075-96.93 4.063l-0.464 12.199c2.614 0.103 64.466 2.394 99.671-4.267 37.614-7.117 60.918-57.774 61.893-59.927l-11.123-5.041z" />
<glyph unicode="&#xe60a;" d="M496.738 433.641c-18.437 18.204-48.313 18.204-66.75 0l-273.721-270.252c-33.516 0.765-79.915-11.108-99.942-76.711-15.312-34.716-55.629-32.955-55.629-32.955 83.699-92.849 182.336-40.238 204.864-17.413 19.794 20.039 22.656 44.582 20.526 64.202l270.651 267.213c18.437 18.204 18.437 47.721 0 65.915zM183.311 58.284c-15.685-14.548-85.737-46.974-126.986-15.544 0 0 14.361 11.205 25.224 33.69 25.951 68.949 90.637 58.736 90.637 58.736l22.249-21.968c0.233-0.22 16.622-29.207-11.123-54.914zM216.689 135.166c-2.038 2.025-22.254 21.97-22.254 21.97l33.38 32.957 22.249-21.97-33.374-32.957zM474.483 389.696l-202.171-199.603-22.249 21.97 202.171 199.606c6.144 6.067 16.103 6.067 22.247 0 6.149-6.070 6.149-15.903 0.002-21.972z" />
<glyph unicode="&#xe60b;" d="M334.779 477.036v-0.446c-2.035 0-10.435 0.771-31.514 0.446h-189.064c-34.809 0-63.020-28.216-63.020-63.017v-378.132c0-34.798 28.211-63.014 63.020-63.014h283.597c34.803 0 63.017 28.216 63.017 63.014v283.597c0 4.925 0 8.374 0 31.511l-126.036 126.041zM429.307 35.886c0-17.395-14.108-31.509-31.511-31.509h-283.594c-17.398 0-31.506 14.113-31.506 31.509v378.132c0 17.398 14.106 31.511 31.506 31.511h188.621c-0.292-37.724 0.445-63.024 0.445-63.024 0-34.8 28.214-63.022 63.022-63.022 0 0 26.337 0 63.017 0v-283.597zM366.29 350.994c-17.411 0-31.511 14.111-31.511 31.511 0 0 0 25.508 0 63.024l94.528-94.535h-63.017z" />
<glyph unicode="&#xe60c;" d="M375.805 479.084c-30.597 0-55.498-25.078-55.498-55.898v-109.243c-7.212 3.51-15.301 5.43-23.785 5.43-15.539 0-29.578-6.471-39.642-16.845-10.064 10.373-24.102 16.845-39.642 16.845-8.484 0-16.569-1.92-23.785-5.43v109.24c0 30.82-24.898 55.898-55.498 55.898s-55.498-25.078-55.498-55.898v-279.498c0-96.865 78.254-175.685 174.426-175.685 95.621 0 173.558 77.936 174.346 174.088 0.077 0.56 0.077 1.037 0.077 1.598v279.498c0 30.82-24.901 55.9-55.501 55.9zM352.021 423.183c0 13.179 10.704 23.957 23.785 23.957 13.084 0 23.788-10.777 23.788-23.957v-205.87c-14.827 12.063-32.428 18.286-47.572 20.846v185.024zM272.738 263.47c0 13.176 10.701 23.957 23.785 23.957s23.785-10.778 23.785-23.957v-23.957h-47.57v23.957zM193.452 263.47c0 13.176 10.701 23.957 23.785 23.957s23.787-10.778 23.787-23.957v-23.957h-47.572v23.957zM256.88-0.054c-78.728 0-142.713 64.528-142.713 143.739v279.498c0 13.179 10.701 23.957 23.785 23.957s23.785-10.777 23.785-23.957v-199.642c0-13.099 3.095-30.743 11.412-47.276 12.851-25.467 38.139-48.553 83.728-48.553h5.796c-12.769-14.615-21.653-35.298-21.653-63.882 0-8.784 7.137-15.974 15.857-15.974 8.717 0 15.856 7.194 15.856 15.974 0 61.565 57.001 63.808 63.426 63.882 8.717 0 15.854 7.191 15.854 15.969 0 8.784-7.137 15.972-15.854 15.972h-79.286c-21.087 0-35.12 6.784-44.475 15.969-9.994 9.741-14.672 22.116-16.97 31.946h140.651c1.907 0 8.082-0.243 15.933-2.076 16.414-3.763 40.123-14.695 46.147-45.839 0.945-4.787 1.426-10.137 1.426-15.972 0-5.425-0.317-10.704-0.87-15.969-7.923-71.719-68.577-127.767-141.837-127.767z" />
<glyph unicode="&#xe60d;" d="M255.516-30.74c-0.002 0-0.002 0-0.007 0-6.512 0.005-11.43 3.582-14.613 10.634-1.385 3.062-4.618 10.233-16.56 22.18l-1.328 1.521-176.041 232.781c-14.835 24.653-30.663 54.392-30.663 95.454 0 36.882 12.723 73.5 34.906 100.47 23.992 29.171 56.853 45.24 92.523 45.24 42.23 0 80.84-19.625 112.578-56.99 33.229 37.366 71.946 56.99 112.853 56.99 35.661 0 68.516-16.069 92.508-45.243 22.18-26.972 34.903-63.59 34.903-100.47 0-36.132-9.636-65.856-31.245-96.371l-0.284-0.387-176.185-232.289-0.712-0.707c-12.473-12.478-16.514-19.889-18.238-23.050-1.321-2.416-5.33-9.764-14.395-9.764zM245.839 22.116c4.17-4.219 7.547-8.062 10.291-11.507 2.837 3.41 6.293 7.25 10.519 11.515l174.835 230.507c18.017 25.508 25.705 49.206 25.705 79.198 0 55.946-37.481 116.329-98.027 116.329-36.946 0-71.091-20.185-101.488-59.998l-12.050-15.78-11.566 16.135c-19.505 27.207-52.746 59.643-100.329 59.643-60.562 0-98.048-60.383-98.048-116.329 0-33.203 12.81-57.572 26.058-79.639l174.101-230.075z" />
<glyph unicode="&#xe60e;" d="M197.517 78.285c-2.506 0-5.033 0.788-7.189 2.409l-180.462 136.279c-2.99 2.26-4.746 5.786-4.746 9.534s1.756 7.273 4.746 9.534l180.457 136.279c5.271 3.976 12.756 2.934 16.732-2.334 3.976-5.264 2.931-12.754-2.334-16.73l-167.833-126.748 167.836-126.745c5.266-3.976 6.31-11.464 2.334-16.727-2.35-3.111-5.924-4.749-9.541-4.749zM313.344 78.285c-3.62 0-7.194 1.639-9.543 4.746-3.976 5.266-2.934 12.752 2.334 16.727l167.839 126.745-167.839 126.748c-5.269 3.976-6.31 11.466-2.334 16.73 3.973 5.263 11.466 6.31 16.729 2.334l180.462-136.279c2.99-2.258 4.746-5.786 4.746-9.534s-1.759-7.273-4.746-9.534l-180.462-136.276c-2.151-1.62-4.68-2.409-7.186-2.409z" />
<glyph unicode="&#xe60f;" d="M370.811 11.246h-67.151c-6.313 0-11.010 2.993-13.959 8.889l-0.433 1.011-36.083 99.226h-123.814l-34.096-97.26c-1.623-7.557-7.135-11.865-15.257-11.865h-61.158c-6.464 0-9.93 2.8-11.704 5.151-2.611 3.464-3.182 7.851-1.694 13.051l0.176 0.555c36.749 104.123 89.71 252.109 125.256 348.204 1.646 5.497 3.195 10.934 4.311 30.29 0.179 7.216 5.898 12.82 13.166 12.82h82.742c8.118 0 11.31-4.19 13.358-8.29l0.44-1.029c10.445-28.935 21.123-58.563 31.936-88.581 35.257-97.851 71.719-199.030 106.55-293.904l0.098-0.272c2.041-6.131 0.384-10.309-1.365-12.741-1.413-1.964-4.767-5.255-11.315-5.255zM306.276 30.39h56.404c-33.976 92.636-69.481 191.171-103.846 286.538-10.399 28.864-20.672 57.372-30.73 85.245h-74.127c-1.262-17.83-3.077-23.877-4.836-29.745l-0.192-0.578c-34.749-93.932-86.236-237.73-122.875-341.455l51.466-0.005 38.257 109.123h150.794l39.685-109.123zM256.546 179.131h-131.518l4.035 12.508c5.333 16.54 11.335 34.396 17.142 51.663 13.752 40.904 27.971 83.202 34.199 110.608l1.695 7.45h15.46l1.982-6.942c6.407-22.418 17.889-56.261 28.992-88.99 9.651-28.447 18.768-55.317 24.34-73.984l3.673-12.311zM151.36 198.272h79.363c-5.417 17.067-12.7 38.541-20.322 61-6.853 20.206-13.855 40.832-19.745 59.038-7.239-24.397-16.881-53.079-26.304-81.111-4.347-12.921-8.798-26.173-12.992-38.928zM486.551 11.246h-62.359c-9.229 0-14.966 5.735-14.966 14.971v281.198c0 8.727 5.404 14.37 13.77 14.37h63.552c9.132 0 14.37-5.238 14.37-14.37v-281.802c0.002-8.594-5.773-14.366-14.366-14.366zM428.373 30.39h53.404v272.253h-53.404v-272.253zM454.774 342.216c-29.752 0-49.743 18.785-49.743 46.745 0 27.087 21.171 46.745 50.34 46.745 29.394 0 49.144-18.786 49.144-46.745 0.002-27.961-19.986-46.745-49.741-46.745zM455.373 416.563c-18.663 0-31.199-11.092-31.199-27.602 0-17.283 11.435-27.602 30.599-27.602 19.161 0 30.599 10.32 30.599 27.602 0.002 17.28-11.213 27.602-30 27.602z" />
<glyph unicode="&#xe610;" d="M152.517 32.266h-58.814c-8.231 0-13.552 5.543-13.552 14.118v359.675c0 6.277 3.561 12.987 13.552 12.987h59.379c12.232 0 13.553-9.081 13.553-12.987v-359.675c0-8.709-5.41-14.118-14.119-14.118zM98.204 50.322h50.373v350.669h-50.373v-350.669zM323.525 26.614c-84.053 0-134.236 49.433-134.236 132.229 0 38.096 14.165 72.76 39.885 97.61 26.832 25.925 63.79 39.626 106.87 39.626 7.885 0 14.471-0.458 20.557-1.474v96.671c0 6.774 4.524 11.505 11 11.505h54.602c5.228 0 10.503-3.405 10.503-11.003v-295.552c0-8.694 0.712-19.638 1.234-27.625l0.226-3.466c1.341-8.228-4.421-11.678-6.346-12.834l-0.581-0.317c-33.244-16.361-70.077-25.37-103.714-25.37zM336.046 280.087c-76.99 0-130.762-49.858-130.762-121.244 0-73.869 43.095-116.237 118.241-116.237 30.551 0 64.057 8.059 94.6 22.728l-0.144 2.227c-0.535 8.205-1.267 19.451-1.267 28.664v290.563h-44.119v-112.896l-10.253 3.013c-7.683 2.26-15.303 3.182-26.296 3.182zM330.537 74.706c-22.441 0-41.61 7.127-55.426 20.621-15.731 15.347-23.703 37.73-23.703 66.522 0 54.060 32.049 87.647 83.638 87.647 9.039 0 22.026-0.881 32.522-5.079l5.028-2.010v-160.455l-5.466-1.822c-10.329-3.451-23.667-5.422-36.592-5.422zM335.045 233.5c-42.358 0-67.646-26.788-67.646-71.652 0-45.218 23.012-71.15 63.137-71.15 8.909 0 18.258 1.108 26.066 3.031v137.446c-5.888 1.513-13.327 2.325-21.558 2.325z" />
<glyph unicode="&#xe611;" d="M3238.127-6281.068c0-11.287-9.148-20.435-20.429-20.435s-20.434 9.131-20.434 20.435c0 11.264 20.434 51.342 20.434 51.342s20.429-40.061 20.429-51.342zM85.976 158.538h-1.394c-7.31 0-12.18 4.522-15.314 11.491l-67.527 152.462c-0.694 2.435-1.741 4.87-1.741 7.304 0 6.963 5.922 13.226 13.579 13.226s11.486-4.522 13.573-10.439l58.129-140.63 59.17 141.323c1.741 5.223 5.57 9.745 12.532 9.745 7.31 0 13.226-5.922 13.226-13.226 0-2.435-0.694-4.869-1.394-6.611l-67.868-153.156c-3.135-6.969-7.663-11.491-14.973-11.491zM195.971 213.533v0.7c0 37.939 31.334 58.129 76.931 58.129 22.966 0 39.333-3.135 55.347-7.657v6.263c0 32.37-19.837 49.078-53.606 49.078-18.108 0-33.416-4.175-46.643-10.092-1.746-0.699-3.482-1.047-4.869-1.047-6.269 0-11.833 5.216-11.833 11.486 0 5.57 3.828 9.745 7.304 11.139 17.755 7.657 35.857 12.185 58.829 12.185 25.413 0 44.902-6.616 58.135-19.843 12.185-12.18 18.444-29.588 18.444-52.56v-98.503c0-7.663-5.57-13.226-12.88-13.226-7.657 0-12.88 5.57-12.88 12.527v16.361c-12.533-16.361-33.416-30.976-65.092-30.976-33.416 0-67.186 19.143-67.186 56.036zM328.596 227.459v17.408c-13.226 3.828-30.976 7.657-52.906 7.657-33.769 0-52.56-14.62-52.56-37.245v-0.7c0-22.625 20.884-35.851 45.25-35.851 33.064 0 60.217 20.19 60.217 48.731zM411.091 329.449c0 7.31 5.916 13.574 13.226 13.574 7.657 0 13.579-5.922 13.579-13.574v-33.763c13.221 29.935 39.333 48.037 61.957 48.037 8.005 0 13.227-5.922 13.227-13.579 0-7.31-4.87-12.533-11.833-13.573-34.81-4.176-63.351-30.282-63.351-82.148v-61.269c0-7.305-5.57-13.574-13.233-13.574-7.657 0-13.574 5.916-13.574 13.574v156.297z" />
<glyph unicode="&#xe612;" d="M261.921 22.090h-225.826c-9.538 0-15.232 5.696-15.232 15.232v371.881c0 8.409 5.65 14.057 14.057 14.057h62.175c8.056 0 13.471-5.415 13.471-13.471v-312.074h162.499c5.56 0 8.719-2.427 10.391-4.464 2.452-2.988 3.233-6.832 2.314-11.423l-9.098-49.226c-2.325-6.974-7.286-10.512-14.75-10.512zM39.593 40.817h219.638l6.983 38.169h-174.375v325.548h-52.247v-363.717zM380.413 22.090h-61.589c-8.671 0-14.057 5.386-14.057 14.060v197.671c0 26.25-1.221 59.522-2.844 77.796-0.894 4.764 0.95 8.043 2.181 9.618 1.659 2.125 4.849 4.656 10.616 4.656h55.135c7.618 0 12.918-3.84 15.337-11.1 1.362-4.418 2.616-10.521 3.676-17.037 24.658 23.25 57.017 34.005 80.12 34.005 2.654 0 6.274 0 9.68-0.814 10.826-2.281 10.826-11.187 10.826-15.004v-54.551c0-8.182-5.519-13.468-14.057-13.468l-0.327 0.005c-29.732 1.014-61.99-10.765-80.64-29.043v-182.736c0-8.671-5.386-14.057-14.057-14.057zM323.497 40.817h52.245v185.513l2.478 2.688c20.969 22.771 57.241 37.53 92.549 37.698v46.303c-0.635 0.010-1.252 0.010-1.782 0.010-23.319 0-58.063-13.291-79.234-42.473l-14.649-20.19-2.255 24.842c-1.093 12.006-3.106 24.886-4.954 31.957h-46.827c1.436-19.51 2.427-48.896 2.427-73.344v-193.003z" />
<glyph unicode="&#xe613;" d="M449.272 439.921h-386.545c-32.522 0-58.888-26.365-58.888-58.887v-314.068c0-32.522 26.366-58.887 58.888-58.887h386.545c32.522 0 58.887 26.365 58.887 58.887v314.068c0 32.522-26.365 58.887-58.887 58.887zM493.061 381.033v-28.69h-99.656v72.478h55.867c24.182 0 43.789-19.605 43.789-43.789zM245.43 95.654v-72.478h-114.755v72.478h114.755zM260.531 95.654h111.734v-72.478h-111.734v72.478zM18.939 110.756v226.488h474.12v-226.491h-474.12zM263.55 352.346v72.476h114.755v-72.478h-114.755zM248.451 352.346h-111.737v72.476h111.734v-72.476zM62.727 424.822h58.888v-72.478h-102.677v28.69c0 24.185 19.605 43.789 43.789 43.789zM18.939 66.964v28.69h96.635v-72.478h-52.846c-24.184 0.002-43.789 19.607-43.789 43.789zM449.272 23.178h-61.909v72.478h105.695v-28.69c0.002-24.185-19.605-43.789-43.786-43.789zM221.271 287.851v-123.906l107.302 61.954-107.303 61.952zM236.373 261.698l62-35.799-62-35.801v71.601z" />
<glyph unicode="&#xe614;" d="M31.462 17.485c-14.193 0-25.808 11.615-25.808 25.808v361.3c0 14.188 11.614 25.805 25.808 25.805h451.627c14.203 0 25.805-11.618 25.805-25.805v-361.3c0-14.203-11.607-25.808-25.805-25.808h-451.627zM495.993 404.592c0 7.099-5.814 12.908-12.905 12.908h-451.625c-7.094 0-12.898-5.808-12.898-12.908v-361.3c0-7.101 5.796-12.91 12.898-12.91h451.627c7.101 0 12.915 5.808 12.915 12.91v361.3h-0.013zM212.112 404.592c100.006 0 180.652-80.645 180.652-180.651 0-100.004-80.645-180.649-180.651-180.649-100.004 0-180.649 80.645-180.649 180.649 0 100.007 80.645 180.651 180.649 180.651zM31.462 82.007h51.617v-38.715h-51.617v38.715zM212.112 56.2c92.907 0 167.749 74.839 167.749 167.742s-74.841 167.746-167.749 167.746c-92.9 0-167.742-74.844-167.742-167.746s74.841-167.741 167.742-167.741zM44.37 56.2h25.807v12.897h-25.808v-12.897zM212.112 301.366c42.585 0 77.422-34.841 77.422-77.424s-34.837-77.414-77.422-77.414c-42.581 0-77.419 34.832-77.419 77.414s34.839 77.424 77.419 77.424zM212.112 159.421c35.492 0 64.519 29.038 64.519 64.519 0 35.492-29.036 64.519-64.519 64.519s-64.507-29.028-64.507-64.519c0-35.481 29.023-64.519 64.507-64.519zM212.112 236.851c7.096 0 12.905-5.814 12.905-12.908 0-7.099-5.809-12.908-12.905-12.908-7.094 0-12.91 5.808-12.91 12.908-0.002 7.094 5.816 12.907 12.91 12.907zM334.7 56.2h12.9c3.873 0 6.459-2.583 6.459-6.454s-2.588-6.454-6.459-6.454h-12.9c-3.873 0-6.457 2.58-6.457 6.454s2.583 6.454 6.457 6.454zM373.404 56.2h12.902c3.87 0 6.454-2.583 6.454-6.454s-2.586-6.454-6.454-6.454h-12.902c-3.873 0-6.449 2.58-6.449 6.454s2.578 6.454 6.449 6.454zM412.109 140.068c0 3.873 2.594 6.459 7.752 6.459h18.061v193.546h-19.358v51.618h51.62v-51.618h-19.361v-193.546h12.913c3.873 0 6.451-2.588 6.451-6.459 0-3.868-2.578-6.454-6.451-6.454h-12.913v-58.066c0-3.87-2.575-6.454-6.449-6.454h-25.81c-3.863 0-6.454 2.586-6.454 6.454v64.519zM425.019 82.007h12.902v51.604h-12.902v-51.605zM431.478 352.976h25.805v25.815h-25.805v-25.815z" />
<glyph unicode="&#xe615;" d="M72.474 34.452h-59.837c-7.675 0-12.636 4.959-12.636 12.634v360.174c0 9.236 6.136 12.575 11.932 12.629 20.787 0.545 63.043 1.129 106.834 1.129 53.837 0 94.912-13.154 122.076-39.099 23.36-22.303 35.879-54.124 36.204-92.009 0-44.598-17.61-80.919-50.931-105.116-29.145-21.163-68.803-32.351-114.688-32.351h-26.322v-104.793c0-8.018-4.956-13.197-12.631-13.197zM17.357 51.81h50.391v117.988h43.678c71.672 0 148.262 31.534 148.262 120.036-0.289 33.488-10.665 60.27-30.83 79.531-23.831 22.756-60.869 34.294-110.090 34.294-40.384 0-79.421-0.496-101.406-1.001v-350.848zM113.121 206.072c-25.001 0-33.316 0.635-37.77 1.195l-7.6 0.95v157.018l7.6 0.952c5.716 0.717 23.168 1.198 43.415 1.198 57.538 0 90.54-28.677 90.54-78.682-0.002-52.516-35.059-82.631-96.184-82.631zM85.105 223.895c5.361-0.261 13.87-0.469 28.014-0.469 65.152 0 78.825 35.497 78.825 65.275 0 50.688-39.795 61.325-73.18 61.325-15.355 0-26.668-0.269-33.659-0.574v-125.558zM393.137 28.808c-33.933 0-68.209 8.645-91.779 23.137-5.031 2.675-7.793 7.344-7.793 13.202v51.938c0 6.692 4.946 11.935 11.257 11.935 2.189 0 4.329-0.65 6.183-1.882 29.447-18.69 60.272-29.036 86.649-29.036 16.727 0 26.322 6.096 26.322 16.724 0 7.969-3.156 14.464-45.373 31.47-61.957 25.262-83.906 50.115-83.906 94.986 0 54.151 45.005 90.537 111.99 90.537 39.81 0 64.837-9.523 78.822-17.513l1.113-0.755c5.844-4.672 6.651-9.546 6.651-14.119v-46.292c0-7.257-5.005-12.736-11.646-12.736-2.178 0-4.398 0.627-6.425 1.813-11.092 6.151-40.313 20.309-74.163 20.309-9.831 0-26.32-1.954-26.32-15.038 0-7.486 2.132-12.925 44.219-29.76 56.036-22.853 88.445-45.435 88.445-93.305 0.002-58.978-43.774-95.616-114.245-95.616zM310.925 66.445c20.647-12.524 52.045-20.281 82.212-20.281 60.667 0 96.891 29.255 96.891 78.259 0 34.498-18.852 53.258-77.591 77.207-46.748 18.706-55.079 28.275-55.079 45.858 0 23.885 22.562 32.394 43.678 32.394 31.616 0 59.399-10.908 74.875-18.478v38.029c0 0.135-0.002 0.254-0.005 0.358-12.347 6.825-34.173 14.671-69.223 14.671-57.488 0-94.63-28.726-94.63-73.18 0-37.174 17.753-56.345 73.067-78.897 39.629-15.962 56.21-26.107 56.21-47.557 0-15.726-11.44-34.082-43.678-34.082-26.777 0-57.234 9.236-86.73 26.176v-40.478z" />
<glyph unicode="&#xe616;" d="M85.44 26.11h-61.197c-7.928 0-13.258 5.33-13.258 13.261v368.341c0 9.697 6.446 13.202 12.531 13.258 21.184 0.555 64.371 1.154 109.269 1.154 55.148 0 97.232-13.486 125.079-40.077 23.957-22.878 36.798-55.501 37.133-94.341 0-45.726-18.061-82.967-52.226-107.779-29.868-21.688-70.495-33.152-117.494-33.152h-26.578v-106.826c0-8.407-5.204-13.839-13.258-13.839zM29.419 44.544h50.846v120.663h45.013c73.136 0 151.283 32.159 151.283 122.419-0.292 34.148-10.87 61.456-31.427 81.088-24.304 23.207-62.106 34.978-112.35 34.978-41.185 0-80.883-0.505-103.365-1.017v-358.131zM127.010 201.623c-25.6 0-34.114 0.656-38.674 1.226l-8.072 1.011v161.18l8.072 1.011c5.858 0.734 23.719 1.226 44.446 1.226 59.059 0 92.93-29.453 92.93-80.807 0.002-53.924-35.976-84.849-98.704-84.849zM98.698 220.519c5.491-0.264 14.126-0.464 28.314-0.464 66.345 0 80.272 36.117 80.272 66.414 0 51.553-40.512 62.375-74.499 62.375-15.47 0-26.921-0.269-34.087-0.571v-127.754zM395.481 26.11h-60.621c-8.535 0-13.834 5.302-13.834 13.837v194.56c0 25.835-1.203 58.588-2.803 76.572-0.878 4.69 0.935 7.916 2.148 9.467 1.634 2.089 4.772 4.585 10.45 4.585h54.267c7.495 0 12.716-3.779 15.094-10.926 1.339-4.35 2.575-10.358 3.618-16.773 24.269 22.887 56.12 33.472 78.861 33.472 2.614 0 6.175 0 9.526-0.801 10.66-2.245 10.66-11.011 10.66-14.769v-53.691c0-8.054-5.433-13.258-13.834-13.258l-0.325 0.005c-29.289 0.999-61.015-10.596-79.37-28.587v-179.861c0.002-8.527-5.299-13.832-13.834-13.832zM339.461 44.544h51.425v182.595l2.437 2.647c20.639 22.41 56.341 36.938 91.093 37.105v45.571c-0.625 0.013-1.231 0.013-1.753 0.013-22.955 0-57.147-13.082-77.99-41.808l-14.416-19.874-2.222 24.451c-1.072 11.817-3.051 24.494-4.869 31.454h-46.093c1.411-19.202 2.389-48.125 2.389-72.19v-189.965z" />
<glyph unicode="&#xe617;" d="M510.118 227.259l-47.457 130.468c-0.522 2.041-1.882 3.774-3.73 4.787-1.846 1.008-4.042 1.206-6.041 0.563l-87.414-34.332c-14.82 8.297-70.938 39.25-88.543 42.178-2.906 0.484-6.026 0.734-9.272 0.734-15.298 0-29.977-5.422-33.874-6.969-9.042-1.065-56.852-7.291-89.049-23.38-28.047 14.454-50.347 31.086-50.576 31.257-1.695 1.267-3.845 1.792-5.921 1.416-2.087-0.364-3.922-1.575-5.087-3.338l-76.703-116.567c-2.261-3.446-1.403-8.059 1.948-10.455l96.784-69.127c-3.346-7.785-3.517-15.603-0.407-22.681 5.346-12.17 18.688-19.041 25.756-21.942 5.427-21.893 19.303-25.303 27.412-25.303 2.721 0 5.266 0.374 7.486 0.896 7.737-17.147 18.414-20.995 26.437-20.99v0c4.126 0 7.808 1.042 10.737 2.294 4.78-5.348 13.281-12.45 25.643-13.998 1.298-0.161 2.512-0.238 3.655-0.238 7.483 0 12.117 3.172 14.669 5.837 3.494 3.627 4.958 8.108 5.586 11.517l17.073-11.966 0.464-0.3c1.498-0.906 12.252-7.111 23.683-7.111 3.425 0 6.917 0.56 10.23 1.989 3.998 1.718 8.942 5.253 12.163 12.524 6.521-0.336 16.474 0.358 24.873 6.188 6.377 4.434 10.726 10.87 12.954 19.187 6.49 0.56 16.228 2.658 23.882 9.646 5.694 5.2 9.231 12.048 10.583 20.442 6.83 0.1 16.466 1.623 23.808 8.24 7.019 6.329 10.312 15.613 9.904 27.55l84.362 42.186c3.241 1.613 4.908 5.286 3.983 8.796zM118.799 158.003c-1.477 3.392-1.249 6.93 0.745 11.134 4.787 10.142 10.517 16.195 15.321 16.195 2.882 0 6.372-2.112 10.099-6.011-5.868-7.301-13.386-18.852-15.399-31.839-4.429 2.619-8.87 6.178-10.767 10.522zM144.702 136.926l-0.005 0.054c-2.076 11.405 5.005 23.368 10.887 31.045l5.256 4.962c3.351 3.164 10.555 8.179 15.611 8.179 4.395 0 6.72-5.814 7.982-11.774-6.536-7.777-22.154-28.534-22.346-48.955-1.246-0.305-2.665-0.543-4.15-0.543-2.53 0.005-10.23 0.005-13.235 17.031zM191.867 99.807c-6.884-0.010-11.484 8.63-14.246 16.438l0.059 0.010c-2.773 15.229 12.559 36.539 19.727 44.708 1.201 0.543 3.645 1.442 6.507 1.442 4.606 0 8.627-2.563 12.032-7.522-3.292-1.682-6.313-4.135-8.973-7.322-8.924-10.698-13.018-29.113-10.734-46.8-1.334-0.525-2.829-0.955-4.373-0.955zM237.76 94.5c0-1.209-0.643-4.142-2.014-5.54-0.272-0.266-1.214-1.098-3.727-1.098-0.548 0-1.198 0.041-1.815 0.11-10.37 1.298-16.684 9.362-18.37 11.815-2.565 14.103 0.333 30.057 6.928 37.952 2.514 3.034 5.263 4.503 8.381 4.51 1.024-0.051 9.019-0.827 13.084-14.495l-2.678-32.343 0.213-0.502v-0.409zM401.646 160.149c-4.396-3.991-11.556-4.544-16.1-4.316l-58.445 53.010c-3.128 2.834-7.979 2.606-10.832-0.53-2.844-3.139-2.608-7.993 0.535-10.834l56.379-51.144c-0.389-6.492-2.332-11.563-5.986-14.928-4.854-4.47-11.656-5.57-15.734-5.811l-54.894 52.431c-3.077 2.921-7.916 2.821-10.844-0.251-2.926-3.062-2.813-7.918 0.259-10.841l53.135-50.755c-1.178-5.63-3.471-9.753-7.15-12.337-3.615-2.532-7.995-3.336-11.714-3.512-0.202 0.24-0.307 0.533-0.533 0.75l-47.808 45.356c-3.065 2.901-7.923 2.791-10.844-0.292-2.906-3.070-2.788-7.921 0.295-10.832l41.751-39.606-0.151-0.666c-1.502-6.776-4.426-8.046-5.392-8.458-5.98-2.606-16.336 2.068-19.786 4.050l-24.013 16.832 1.969 21.645-0.338 1.308c-4.534 17.139-14.869 24.228-22.915 26.386-8.738 18.099-21.463 20.93-28.572 20.93-2.028 0-3.945-0.207-5.673-0.543-5.089 16.563-15.493 19.305-21.793 19.305-7.508 0-14.766-3.84-19.753-7.273-7.032 7.596-14.354 11.428-21.829 11.428-8.097 0-15.522-4.452-21.927-12.866l-89.63 64.023 68.26 103.749c9.433-6.574 27.989-18.834 49.776-29.724 2.243-1.121 4.894-1.078 7.099 0.133 16.617 9.063 39.683 15.073 58.094 18.767-4.695-4.329-10.046-9.543-16.174-15.941-25.052-26.151-14.142-42.007-12.547-44.060 6.16-7.142 14.592-10.921 24.394-10.913 21.494 0 45.23 18.24 52.078 23.903l18.565 2.058c12.631-43.589 61.778-62.305 72.325-65.853l60.050-60.050c0.346-0.348 0.793-0.527 1.185-0.786-0.195-5.822-1.762-10.194-4.774-12.944zM412.183 188.626l-57.452 57.449c-0.904 0.896-2.005 1.554-3.228 1.917-0.563 0.169-56.976 17.58-65.219 61.566-0.697 3.658-3.894 6.254-7.531 6.254-0.286 0-0.566-0.016-0.863-0.048l-27.609-3.067c-1.57-0.169-3.047-0.827-4.234-1.872-6.825-6.024-28.006-21.673-43.833-21.673-5.186 0-9.129 1.625-12.345 5.113-0.537 1.351-2.637 9.101 11.569 23.926 25.912 27.044 36.892 31.808 36.869 31.808 0.169 0.056 0.33 0.128 0.494 0.197 0.143 0.061 14.494 6.142 28.846 6.142 2.409 0 4.672-0.177 6.759-0.528 12.516-2.082 58.558-26.301 86.454-42.063 1.866-1.060 4.101-1.278 6.134-0.62l82.893 32.863 43.82-116.606-81.523-40.758z" />
<glyph unicode="&#xe618;" d="M487.685 454.062c0.023-63.923 0.026-127.846 0.031-191.769v-5.056c-8.61-0.077-17.224-0.154-25.833-0.233-17.017-0.154-34.035-0.307-51.049-0.451-34.563-0.286-69.125-0.569-103.69-0.811-14.090-0.102-28.183-0.149-42.274-0.195l-8.087-0.025c-0.691-0.002-1.38-0.005-2.071-0.005v164.498c19.213 2.808 38.425 5.614 57.643 8.42l48.013 7.007c41.318 6.029 82.632 12.057 123.952 18.117 1.122 0.164 2.243 0.333 3.364 0.505zM507.947 477.904c-0.548 0-1.096 0-1.644 0-8.32-1.357-16.625-2.826-24.965-4.050-57.316-8.402-114.632-16.75-171.95-25.122-23.534-3.435-47.065-6.871-70.597-10.314-1.472-0.215-2.939-0.486-4.593-0.768 0-67.533 0-134.851 0-202.642 4.962 0 9.831-0.010 14.666-0.010 2.67 0 5.33 0.002 7.99 0.013 16.809 0.056 33.625 0.1 50.435 0.22 34.57 0.243 69.143 0.525 103.714 0.811 30.605 0.256 61.212 0.55 91.817 0.814 5.389 0.043 5.409 0.010 5.409 5.248-0.005 72.453-0.007 144.909-0.036 217.367 0.002 6.144-0.159 12.288-0.246 18.432v0zM254.231 189.814l194.181-0.548c13.281-0.041 26.563-0.079 39.844-0.123v-31.019c-0.018-0.156-0.038-0.31-0.054-0.466-0.179-1.577-0.425-3.738-0.425-6.185-0.018-34.171-0.021-68.339-0.026-102.512-0.002-18.386-0.005-36.769-0.007-55.145-30.413 4.293-60.825 8.584-91.238 12.872l-52.854 7.454c-9.513 1.341-19.029 2.69-28.539 4.034-19.891 2.818-40.327 5.709-60.665 8.546-0.010 8.094-0.036 16.176-0.059 24.087-0.023 7.928-0.048 15.854-0.056 23.782-0.038 30.894-0.061 61.791-0.087 92.682l-0.016 22.541zM236.439 210.381c-0.768 0-1.636-0.002-2.737-0.002 0-1.805-0.002-3.369 0-4.941 0.038-43.62 0.064-87.245 0.118-130.87 0.025-20.644 0.146-41.293 0.115-61.939 0-2.573 0.44-3.832 3.392-4.24 34.501-4.764 68.976-9.692 103.46-14.558 54.131-7.637 108.257-15.265 162.386-22.912 1.334-0.19 2.632-0.612 3.952-0.921 0.272 0 0.548 0 0.819 0 0.105 1.902 0.302 3.807 0.305 5.709 0.018 58.586 0.010 117.174 0.038 175.757 0 1.872 0.31 3.743 0.481 5.611 0 17.505 0 35.010 0 52.516-20.101 0.064-40.197 0.128-60.298 0.187-44.298 0.128-88.596 0.251-132.894 0.377-25.843 0.072-51.684 0.149-77.527 0.22-0.517 0.005-1.037 0.007-1.61 0.007v0zM188.642 410.67v-156.112h-165.55v13.788c0.005 26.913 0.008 53.829-0.015 80.745-0.010 11.815-0.054 24.24-0.138 39.048 44.754 6.070 89.502 12.16 134.256 18.25l31.447 4.28zM208.12 434.017c-0.030 0-0.059 0-0.087-0.005-67.671-9.206-135.337-18.43-203.008-27.599-2.434-0.33-2.706-1.613-2.691-3.643 0.12-17.899 0.212-35.796 0.231-53.696 0.034-36.921 0.013-73.838 0.013-110.756 0-1.582 0-3.164 0-4.273 69.181 0 137.754 0 206.579 0 0 67.018 0 133.266 0 199.777-0.525 0.090-0.804 0.195-1.037 0.195v0zM23.291 192.445l165.307-1.029v-155.909l-165.307 22.712v134.226zM2.775 213.084c0-57.925 0-115.172 0-172.754 68.828-9.459 137.513-18.895 206.336-28.349 0 66.877 0 133.136 0 199.821-68.862 0.425-137.436 0.858-206.336 1.283v0z" />
</font>
</defs>
</svg>
